<svg width="35" height="20" viewBox="0 0 35 20" fill="none" xmlns="http://www.w3.org/2000/svg">
<path d="M19.545 4.76113C20.1427 4.25641 20.5125 3.55994 20.5125 2.79044C20.5125 1.24939 19.0294 0 17.2 0C16.0435 0 15.0267 0.500168 14.4342 1.25684C14.2768 1.38964 1.09072 15.0808 0.967454 15.2382C0.369794 15.743 0 16.4396 0 17.2087C0 18.75 1.4831 19.9994 3.31242 19.9994C4.46894 19.9994 5.48575 19.4994 6.07826 18.7425C6.23565 18.6097 19.4217 4.91834 19.545 4.76113Z" fill="white"/>
<path d="M27.1747 11.2582C27.774 10.7531 28.1446 10.0558 28.1446 9.28526C28.1446 7.7442 26.6615 6.49481 24.8321 6.49481C23.6751 6.49481 22.6578 6.99539 22.0653 7.75268C21.9067 7.88652 14.9811 15.0782 14.8571 15.2366C14.2577 15.7418 13.8871 16.4391 13.8871 17.2094C13.8871 18.7506 15.3702 20 17.1996 20C18.3566 20 19.3739 19.4995 19.9661 18.7422C20.1248 18.6085 27.0507 11.4167 27.1747 11.2582Z" fill="white"/>
<path d="M34.4 2.79044C34.4 4.33171 32.9169 5.58089 31.0876 5.58089C29.258 5.58089 27.7751 4.33171 27.7751 2.79044C27.7751 1.24939 29.258 0 31.0876 0C32.9169 0 34.4 1.24939 34.4 2.79044Z" fill="white"/>
<path d="M6.62484 2.79044C6.62484 4.33171 5.14174 5.58089 3.31242 5.58089C1.4831 5.58089 0 4.33171 0 2.79044C0 1.24939 1.4831 0 3.31242 0C5.14174 0 6.62484 1.24939 6.62484 2.79044Z" fill="white"/>
</svg>
